/* XPM */
static const char * pause_xpm[] = {
"48 48 2 1",
" 	c None",
".	c #4D5967",
"                                                ",
"                                                ",
"                                                ",
"                                                ",
"                                                ",
"                                                ",
"                                                ",
"                                                ",
"                                                ",
"                                                ",
"          ...........      ...........          ",
"          ...........      ...........          ",
"          ...........      ...........          ",
"          ...........      ...........          ",
"          ...........      ...........          ",
"          ...........      ...........          ",
"          ...........      ...........          ",
"          ...........      ...........          ",
"          ...........      ...........          ",
"          ...........      ...........          ",
"          ...........      ...........          ",
"          ...........      ...........          ",
"          ...........      ...........          ",
"          ...........      ...........          ",
"          ...........      ...........          ",
"          ...........      ...........          ",
"          ...........      ...........          ",
"          ...........      ...........          ",
"          ...........      ...........          ",
"          ...........      ...........          ",
"          ...........      ...........          ",
"          ...........      ...........          ",
"          ...........      ...........          ",
"          ...........      ...........          ",
"          ...........      ...........          ",
"          ...........      ...........          ",
"          ...........      ...........          ",
"          ...........      ...........          ",
"                                                ",
"                                                ",
"                                                ",
"                                                ",
"                                                ",
"                                                ",
"                                                ",
"                                                ",
"                                                ",
"                                                "};
