/* XPM */
static const char * playback_on_xpm[] = {
"48 48 2 1",
" 	c None",
".	c #00C000",
"                                                ",
"                                                ",
"                                                ",
"                                                ",
"                                                ",
"                                                ",
"                                                ",
"                                                ",
"            .                                   ",
"            ...                                 ",
"            ....                                ",
"            ......                              ",
"            ........                            ",
"            ..........                          ",
"            ...........                         ",
"            .............                       ",
"            ...............                     ",
"            .................                   ",
"            ..................                  ",
"            ....................                ",
"            ......................              ",
"            ........................            ",
"            .........................           ",
"            ...........................         ",
"            ...........................         ",
"            .........................           ",
"            ........................            ",
"            ......................              ",
"            ....................                ",
"            ..................                  ",
"            .................                   ",
"            ...............                     ",
"            .............                       ",
"            ...........                         ",
"            ..........                          ",
"            ........                            ",
"            ......                              ",
"            ....                                ",
"            ...                                 ",
"            .                                   ",
"                                                ",
"                                                ",
"                                                ",
"                                                ",
"                                                ",
"                                                ",
"                                                ",
"                                                "};
